<svg width="1336" height="203" viewBox="0 0 1336 203" fill="none" xmlns="http://www.w3.org/2000/svg">
<path d="M1260.93 0C1302.49 0 1335.14 32.6497 1335.14 74.2039C1335.14 115.758 1302.49 148.408 1260.93 148.408C1219.65 148.408 1186.73 115.758 1186.73 74.2039C1186.73 32.6497 1219.65 0 1260.93 0ZM1260.93 140.313C1297.36 140.313 1325.96 110.631 1325.96 74.2039C1325.96 37.5067 1297.36 8.09496 1260.93 8.09496C1224.78 8.09496 1195.9 37.5067 1195.9 74.2039C1195.9 110.631 1224.78 140.313 1260.93 140.313ZM1290.35 102.806C1295.2 109.552 1298.71 112.25 1303.84 112.25V115.488C1300.87 116.568 1296.82 116.837 1294.12 116.837C1286.57 116.837 1282.52 114.679 1278.2 107.933L1261.2 81.7592C1260.12 79.8703 1258.78 79.0608 1256.08 79.0608H1247.71V104.965C1247.71 111.171 1249.33 111.711 1256.08 112.52V116.028H1226.67V112.52C1233.41 111.711 1234.76 111.171 1234.76 104.965V42.9033C1234.76 36.6972 1233.41 35.8877 1226.67 35.348V31.8402H1259.05C1280.09 31.8402 1291.7 38.586 1291.7 52.8871C1291.7 64.4899 1283.87 72.5849 1272 76.6324L1290.35 102.806ZM1259.05 74.2039C1270.11 74.2039 1277.66 65.8391 1277.66 54.5061C1277.66 42.6335 1270.38 36.6972 1255.54 36.6972H1247.71V73.3944C1250.68 73.934 1255 74.2039 1259.05 74.2039Z" fill="black"/>
<path d="M1009.29 3.24805H1173.35V57.2145H1166.87L1160.93 36.9771C1154.73 14.8508 1139.89 12.962 1120.73 12.962H1105.08V174.322C1105.08 190.242 1110.48 192.4 1129.9 194.019V199.686H1053V194.019C1072.16 192.4 1077.56 190.242 1077.56 174.322V12.962H1062.18C1043.02 12.962 1028.18 14.8508 1021.7 36.9771L1016.03 57.2145H1009.29V3.24805Z" fill="black"/>
<path d="M944.182 202.914C912.881 202.914 890.215 191.581 882.66 185.914V144.09H889.406C893.723 175.391 915.04 193.74 944.182 193.74C971.435 193.74 990.593 178.629 990.593 154.884C990.593 136.535 978.99 125.742 950.928 114.679L936.896 109.012C911.262 99.0284 885.628 86.3463 885.628 53.4268C885.628 21.0469 910.183 0 946.341 0C975.752 0 994.101 9.98379 1003.54 15.6503V53.9665H996.799C991.672 26.1737 972.514 9.17429 945.801 9.17429C923.405 9.17429 909.374 23.4754 909.374 44.2525C909.374 62.3312 920.706 72.5849 948.229 83.648L962.53 89.3145C998.958 103.616 1014.34 118.456 1014.34 146.249C1014.34 181.057 986.546 202.914 944.182 202.914Z" fill="black"/>
<path d="M866.975 143.831H873.721L869.673 199.686H712.631V194.019C731.789 192.4 737.186 190.242 737.186 174.322V28.6123C737.186 12.6922 731.789 10.5335 712.631 8.91452V3.24805H867.515V52.0877H860.769L855.372 36.9771C847.547 14.8508 834.055 12.962 813.818 12.962H764.708V93.6419H800.056C818.945 93.6419 827.31 91.4832 831.897 75.8329L833.786 68.0078H840.531V128.99H833.786L831.897 121.165C827.31 105.514 818.945 103.356 800.056 103.356H764.708V187.274C773.343 189.432 782.248 189.972 799.247 189.972C837.563 189.972 850.515 187.543 858.61 165.957L866.975 143.831Z" fill="black"/>
<path d="M656.155 3.24805H719.835V8.91452C705.264 10.8033 700.947 17.5492 695.82 31.3106L631.6 199.686H614.331L549.841 30.2313C544.714 16.7397 540.936 10.8033 526.365 8.91452V3.24805H601.379V8.91452C578.713 10.8033 574.395 17.5492 579.792 32.3899L630.79 168.385L679.36 38.0564C686.376 19.438 675.582 10.8033 656.155 8.91452V3.24805Z" fill="black"/>
<path d="M524.566 170.004C535.899 186.194 545.883 194.019 557.216 194.019V199.686C550.74 201.035 541.835 201.575 535.629 201.575C519.169 201.575 509.455 197.257 498.662 180.528L458.457 119.006C455.219 114.149 451.711 112.26 443.886 112.26H424.728V174.322C424.728 190.242 430.125 192.4 448.203 194.019V199.686H372.65V194.019C391.808 192.4 397.205 190.242 397.205 174.322V28.6123C397.205 12.6922 391.808 10.5335 372.65 8.91452V3.24805H451.172C499.741 3.24805 526.725 18.8983 526.725 52.0877C526.725 81.7692 506.487 99.0385 481.123 107.133L524.566 170.004ZM448.203 103.086C481.393 103.086 497.583 83.1184 497.583 56.1352C497.583 27.8028 478.425 12.962 442.807 12.962H424.728V100.927C430.934 102.276 442.537 103.086 448.203 103.086Z" fill="black"/>
<path d="M363.333 172.703C368.46 185.655 372.238 192.131 386.539 194.019V199.686H312.605V194.019C335.271 192.131 339.318 187.543 333.652 172.703L320.16 137.625H239.75L227.877 168.116C221.132 185.115 229.766 192.131 252.432 194.019V199.686H189.021V194.019C203.323 192.131 207.91 184.845 213.037 171.623L279.415 3.24805H296.685L363.333 172.703ZM243.528 127.641H316.112L279.955 34.2787L243.528 127.641Z" fill="black"/>
<path d="M203.184 8.91452C184.026 10.5335 178.629 12.6922 178.629 28.6123V174.322C178.629 190.242 184.026 192.4 203.184 194.019V199.686H126.551V194.019C145.709 192.4 151.106 190.242 151.106 174.322V103.626H52.0776V174.322C52.0776 190.242 57.4743 192.4 76.9022 194.019V199.686H0V194.019C19.1581 192.4 24.5547 190.242 24.5547 174.322V28.6123C24.5547 12.6922 19.1581 10.5335 0 8.91452V3.24805H76.9022V8.91452C57.4743 10.5335 52.0776 12.6922 52.0776 28.6123V93.372H151.106V28.6123C151.106 12.6922 145.709 10.5335 126.551 8.91452V3.24805H203.184V8.91452Z" fill="black"/>
</svg>
